<svg width="114" height="47" viewBox="0 0 114 47" fill="none" xmlns="http://www.w3.org/2000/svg">
<path d="M51.2226 19.2187C51.6576 19.3862 52.0549 19.5452 52.4144 19.6968C52.774 19.8484 53.1712 20.0382 53.6062 20.2651C54.0412 20.493 54.4191 20.7357 54.7419 20.9934C55.0638 21.251 55.3682 21.5356 55.6532 21.8463C55.9383 22.1569 56.1553 22.5057 56.3052 22.8926C56.4551 23.2796 56.5305 23.6851 56.5305 24.1101C56.5305 24.8077 56.3577 25.4179 56.0128 25.9415C55.668 26.4642 55.2063 26.8744 54.6297 27.1702C54.0522 27.466 53.4297 27.6864 52.7629 27.8296C52.0953 27.9738 51.3872 28.0454 50.6377 28.0454C49.1535 28.0454 47.9277 27.7534 46.9603 27.1693C45.9929 26.5852 45.3445 25.7471 45.0144 24.6552L45.9818 24.4729C46.0867 24.8821 46.2513 25.2616 46.4766 25.6104C46.7019 25.9592 47.0053 26.2968 47.3879 26.6224C47.7704 26.9488 48.2725 27.2027 48.8951 27.3841C49.5177 27.5664 50.2331 27.6576 51.0433 27.6576C51.778 27.6576 52.4411 27.5134 53.0342 27.2251C53.6264 26.9367 54.0945 26.5424 54.4403 26.042C54.7851 25.5416 54.9571 24.9807 54.9571 24.3585C54.9571 24.085 54.9157 23.832 54.8339 23.5967C54.7511 23.3614 54.6536 23.1568 54.5414 22.9829C54.4293 22.8089 54.2453 22.6266 53.9906 22.4369C53.7359 22.2471 53.5143 22.0955 53.3276 21.9821C53.14 21.8686 52.8475 21.7282 52.4503 21.5617C52.053 21.3952 51.7339 21.2659 51.4948 21.1747C51.2548 21.0836 50.887 20.9469 50.3922 20.7655L49.7402 20.5153C49.2905 20.3488 48.9457 20.2232 48.7057 20.1395C48.4657 20.0568 48.1392 19.92 47.7272 19.7303C47.3143 19.5405 46.9961 19.3741 46.7718 19.2299C46.5464 19.0857 46.2844 18.8969 45.9846 18.6607C45.6839 18.4254 45.4595 18.1872 45.3096 17.9445C45.1597 17.7017 45.0282 17.4134 44.916 17.0804C44.8038 16.7465 44.7477 16.3903 44.7477 16.0108C44.7477 15.6016 44.8599 15.1691 45.0852 14.7142C45.3105 14.2594 45.636 13.8306 46.0637 13.4288C46.4913 13.027 47.0679 12.6931 47.7953 12.428C48.5227 12.163 49.3282 12.03 50.2129 12.03C52.7317 12.03 54.6067 12.8791 55.8362 14.5775L54.9589 14.9189C54.3741 14.0697 53.6807 13.4177 52.8788 12.9619C52.0769 12.5071 51.2033 12.2792 50.2589 12.2792C48.7296 12.2792 47.6123 12.734 46.9069 13.6446C46.6071 14.0083 46.4085 14.411 46.311 14.85C46.2136 15.29 46.2025 15.6769 46.277 16.0099C46.3515 16.3131 46.4756 16.5903 46.6485 16.8405C46.8205 17.0907 47.0044 17.299 47.1994 17.4664C47.3943 17.6338 47.6867 17.8115 48.0767 18.0012C48.4666 18.191 48.8004 18.3389 49.0772 18.4449C49.3549 18.5509 49.7779 18.7025 50.3481 18.8997C50.6929 19.0215 50.9854 19.1276 51.2254 19.2178L51.2226 19.2187Z" fill="#E3BA8F"/>
<path d="M74.0977 27.4539L74.1648 27.6362H72.1178L71.0832 24.9286L70.7457 24.1548H61.9065L60.5115 27.6129H60.0618L66.0226 12.7573L66.3151 12.0067H68.0697L74.0977 27.4539ZM62.0858 23.7455H70.6105L66.3822 12.8029L62.2882 23.1773L62.0858 23.7455Z" fill="#E3BA8F"/>
<path d="M88.7855 11.9844H89.2582L83.2523 27.545L83.2302 27.6362H81.3855L75.3575 11.9844H77.3815L83.095 26.7721L88.471 12.7806L88.7855 11.9844Z" fill="#E3BA8F"/>
<path d="M93.6667 11.9844H95.5335V27.6362H93.6667V11.9844Z" fill="#E3BA8F"/>
<path d="M113.933 27.4539L114 27.6362H111.953L110.918 24.9286L110.581 24.1548H101.742L100.347 27.6129H99.897L105.858 12.7573L106.15 12.0067H107.905L113.933 27.4539ZM101.921 23.7455H110.446L106.217 12.8029L102.123 23.1773L101.921 23.7455Z" fill="#E3BA8F"/>
<path d="M16.1114 47H15.9091C7.13701 47 0 42.0584 0 35.9848V0H32.0205V35.9848C32.0205 42.0593 24.8834 47 16.1114 47ZM0.55176 0.382273V35.9848C0.55176 41.8482 7.4414 46.6187 15.9091 46.6187H16.1114C24.5791 46.6187 31.4687 41.8482 31.4687 35.9848V0.382273H0.55176Z" fill="#E3BA8F"/>
<path d="M1.09248 0.924523V35.7448C1.09248 41.4222 7.78993 46.0411 16.024 46.0411C24.2581 46.0411 30.9556 41.4222 30.9556 35.7448V0.924523H1.09248ZM30.4038 35.7448C30.4038 38.4793 28.7908 40.773 26.1874 42.5681C23.5831 44.3632 19.9884 45.3295 16.024 45.3295C8.09431 45.3295 1.64424 41.2129 1.64424 35.7448V1.30587H30.4038V35.7448Z" fill="#E3BA8F"/>
<path d="M22.7325 30.0219C22.3665 29.6229 21.9757 29.2573 21.5618 28.9253C21.1471 28.5942 20.6606 28.2817 20.1015 27.9896C19.5424 27.6976 19.032 27.4539 18.5695 27.2586C18.5327 27.2427 18.495 27.2269 18.4573 27.212C18.6467 27.1804 18.8343 27.1451 19.0182 27.1051C19.8753 26.92 20.6754 26.6372 21.4175 26.2568C22.1587 25.8764 22.7518 25.35 23.1951 24.6784C23.6383 24.005 23.8599 23.221 23.8599 22.3244C23.8599 21.7784 23.7634 21.2575 23.5712 20.7599C23.3781 20.2632 23.0985 19.8149 22.7325 19.415C22.3665 19.016 21.9757 18.6504 21.5618 18.3184C21.1471 17.9873 20.6606 17.6757 20.1015 17.3827C19.5424 17.0907 19.032 16.847 18.5695 16.6516C18.1069 16.4573 17.5965 16.2526 17.0374 16.0378C16.7294 15.9215 16.3532 15.7848 15.91 15.6285C15.178 15.3755 14.6336 15.1802 14.2768 15.0444C13.92 14.9077 13.4914 14.718 12.9903 14.4733C12.4891 14.2306 12.113 14.0018 11.8628 13.7869C11.6127 13.5721 11.3764 13.3042 11.1547 12.9824C10.9331 12.6606 10.774 12.3053 10.6784 11.9156C10.5809 11.4868 10.5956 10.9901 10.7216 10.4246C10.8467 9.8591 11.1014 9.34289 11.4876 8.87505C12.3925 7.70498 13.8289 7.11994 15.795 7.11994C17.0089 7.11994 18.1308 7.41293 19.1626 7.99796C20.1935 8.58207 21.0846 9.42102 21.8359 10.512L22.9633 10.073C21.3834 7.891 18.9741 6.79906 15.7371 6.79906C14.5996 6.79906 13.5641 6.96927 12.6289 7.31061C11.6945 7.65196 10.9524 8.08074 10.4034 8.59695C9.85351 9.11409 9.43509 9.66378 9.14542 10.2488C8.85666 10.8338 8.71229 11.3891 8.71229 11.9156C8.71229 12.4029 8.78493 12.8615 8.92931 13.2893C9.07369 13.719 9.24197 14.0892 9.43509 14.4008C9.62729 14.7124 9.91604 15.0193 10.3023 15.3216C10.6876 15.6239 11.0251 15.8676 11.3138 16.0527C11.6026 16.2377 12.0118 16.4526 12.5424 16.6963C13.0721 16.94 13.4914 17.1148 13.8004 17.2218C13.9871 17.2869 14.2234 17.3725 14.5094 17.4766C13.8427 17.5566 13.2165 17.7036 12.6289 17.9175C11.6945 18.2579 10.9524 18.6876 10.4034 19.2039C9.85351 19.7201 9.43509 20.2707 9.14542 20.8557C8.85666 21.4408 8.71229 21.996 8.71229 22.5225C8.71229 23.0098 8.78493 23.4674 8.92931 23.8962C9.07369 24.325 9.24197 24.6961 9.43509 25.0077C9.62729 25.3193 9.91604 25.6262 10.3023 25.9285C10.6876 26.2308 11.0251 26.4745 11.3138 26.6596C11.6026 26.8447 12.0118 27.0595 12.5424 27.3023C13.0721 27.5469 13.4914 27.7217 13.8004 27.8287C14.1076 27.9366 14.5517 28.0975 15.1293 28.3114L15.9679 28.6332C16.6043 28.8667 17.076 29.0425 17.385 29.1597C17.6922 29.2759 18.1023 29.4424 18.6136 29.6564C19.124 29.8712 19.4992 30.0507 19.7401 30.1967C19.9811 30.3437 20.2652 30.5381 20.5935 30.7818C20.9209 31.0264 21.1572 31.2599 21.3016 31.484C21.446 31.7082 21.571 31.9714 21.6777 32.2727C21.7826 32.576 21.8359 32.9015 21.8359 33.2521C21.8359 34.052 21.6143 34.7729 21.1719 35.4165C20.7278 36.0592 20.1254 36.567 19.3649 36.9363C18.6035 37.3074 17.7501 37.4925 16.8066 37.4925C15.7656 37.4925 14.8451 37.3753 14.046 37.1409C13.2459 36.9074 12.6004 36.581 12.1093 36.1615C11.6173 35.743 11.2274 35.3095 10.9377 34.8603C10.649 34.4129 10.4365 33.9255 10.3023 33.3991L9.05898 33.6325C9.48291 35.0361 10.3161 36.1131 11.5594 36.8637C12.8027 37.6143 14.3779 37.9892 16.2861 37.9892C17.2498 37.9892 18.1602 37.8961 19.0182 37.7111C19.8753 37.5269 20.6754 37.2432 21.4175 36.8637C22.1587 36.4833 22.7518 35.9569 23.1951 35.2844C23.6383 34.6119 23.8599 33.8279 23.8599 32.9313C23.8599 32.3853 23.7634 31.8635 23.5712 31.3668C23.3781 30.8701 23.0985 30.4218 22.7325 30.0219ZM17.0374 26.6447C16.7294 26.5275 16.3532 26.3917 15.91 26.2354C15.178 25.9824 14.6336 25.7871 14.2768 25.6504C13.92 25.5146 13.4914 25.3249 12.9903 25.0802C12.4891 24.8375 12.113 24.6078 11.8628 24.3938C11.6127 24.179 11.3764 23.9111 11.1547 23.5893C10.9331 23.2675 10.774 22.9122 10.6784 22.5225C10.5809 22.0937 10.5956 21.597 10.7216 21.0315C10.8467 20.466 11.1014 19.9489 11.4876 19.481C12.3042 18.4263 13.5521 17.8468 15.2322 17.7445L15.9679 18.0263C16.6043 18.2598 17.076 18.4356 17.385 18.5528C17.6922 18.67 18.1023 18.8355 18.6136 19.0495C19.124 19.2643 19.4992 19.4447 19.7401 19.5908C19.9811 19.7368 20.2652 19.9321 20.5935 20.1749C20.9209 20.4195 21.1572 20.653 21.3016 20.8771C21.446 21.1013 21.571 21.3645 21.6777 21.6668C21.7826 21.9691 21.8359 22.2946 21.8359 22.6462C21.8359 23.4451 21.6143 24.166 21.1719 24.8096C20.7278 25.4532 20.1254 25.9601 19.3649 26.3303C18.8095 26.6 18.2044 26.7721 17.5515 26.8447C17.385 26.7795 17.214 26.7126 17.0374 26.6447Z" fill="#E3BA8F"/>
<path d="M16.1987 24.392C16.1987 23.1056 17.0623 22.0695 18.1253 22.0695C17.0623 22.0695 16.1987 21.0334 16.1987 19.7591C16.1987 21.7784 15.326 22.0695 14.263 22.0695C15.326 22.0695 16.1987 23.1056 16.1987 24.392Z" fill="#E3BA8F"/>
<path d="M64.4888 36.5428V33.9153H64.7554V35.2463H66.7363V33.9153H66.9993V36.5428H66.7363V35.4472H64.7554V36.5428H64.4888Z" fill="#E3BA8F"/>
<path d="M68.1736 36.5428V33.9153H68.4403V36.5428H68.1736Z" fill="#E3BA8F"/>
<path d="M71.0161 35.2565H72.4902V36.1959C72.1766 36.4489 71.7472 36.5763 71.2 36.5763C70.6528 36.5763 70.2335 36.4563 69.9217 36.2145C69.61 35.9736 69.4546 35.6453 69.4546 35.2305C69.4546 34.8156 69.6063 34.4901 69.9107 34.2464C70.2151 34.0027 70.6188 33.8809 71.1218 33.8809C71.6248 33.8809 72.0497 34.0055 72.3743 34.2539L72.1996 34.4064C71.9108 34.1906 71.5504 34.0818 71.1172 34.0818C70.6841 34.0818 70.3632 34.186 70.1084 34.3952C69.8537 34.6036 69.7259 34.8826 69.7259 35.2305C69.7259 35.5783 69.8574 35.8583 70.1195 36.0638C70.3815 36.2694 70.742 36.3717 71.2 36.3717C71.6304 36.3717 71.9725 36.2787 72.2272 36.0927V35.4593H71.0151V35.2584L71.0161 35.2565Z" fill="#E3BA8F"/>
<path d="M73.4806 36.5428V33.9153H73.7482V35.2463H75.729V33.9153H75.992V36.5428H75.729V35.4472H73.7482V36.5428H73.4806Z" fill="#E3BA8F"/>
<path d="M81.7956 35.2305C81.7956 35.6853 81.5988 36.0378 81.2062 36.2889L81.6025 36.6656L81.4085 36.7996L80.9891 36.4043C80.7344 36.5187 80.4374 36.5754 80.0999 36.5754C79.6051 36.5754 79.1996 36.4536 78.8814 36.2099C78.5632 35.9662 78.4041 35.6397 78.4041 35.2295C78.4041 34.8194 78.5595 34.5106 78.8695 34.2585C79.1794 34.0064 79.5895 33.88 80.0999 33.88C80.6103 33.88 80.9965 34.0027 81.3156 34.2473C81.6347 34.492 81.7947 34.8194 81.7947 35.2295L81.7956 35.2305ZM80.1008 36.3745C80.362 36.3745 80.6001 36.3298 80.8144 36.2406L80.3123 35.7634L80.51 35.622L81.0351 36.1252C81.3606 35.9141 81.5234 35.6155 81.5234 35.2305C81.5234 34.8928 81.3928 34.6166 81.1317 34.4027C80.8705 34.1888 80.5266 34.0818 80.0999 34.0818C79.6732 34.0818 79.3486 34.186 79.0791 34.3952C78.8106 34.6036 78.6763 34.8826 78.6763 35.2305C78.6763 35.5783 78.8069 35.8406 79.0681 36.0545C79.3293 36.2685 79.6732 36.3754 80.0999 36.3754L80.1008 36.3745Z" fill="#E3BA8F"/>
<path d="M84.0385 36.5763C83.1787 36.5763 82.7483 36.2238 82.7483 35.5179V33.9153H83.0113V35.4807C83.0113 35.7811 83.0932 36.0052 83.2578 36.1513C83.4224 36.2982 83.6826 36.3708 84.0385 36.3708C84.3944 36.3708 84.6556 36.2973 84.822 36.1513C84.9875 36.0043 85.0712 35.7811 85.0712 35.4807V33.9153H85.3342V35.5179C85.3342 36.2238 84.902 36.5763 84.0385 36.5763Z" fill="#E3BA8F"/>
<path d="M88.7745 36.5428L88.3965 35.8499H86.6741L86.2961 36.5428H86.0055L87.4475 33.9004H87.6222L89.0595 36.5428H88.7745ZM87.5358 34.2241L87.1762 34.9021L86.789 35.6472H88.277L87.8898 34.9021L87.5358 34.2241Z" fill="#E3BA8F"/>
<path d="M89.8936 36.5428V33.9153H90.1603V36.3419H92.0997V36.5428H89.8936Z" fill="#E3BA8F"/>
<path d="M92.989 36.5428V33.9153H93.2557V36.5428H92.989Z" fill="#E3BA8F"/>
<path d="M95.3477 36.5428V34.1162H94.2056V33.9153H96.7575V34.1162H95.6154V36.5428H95.3477Z" fill="#E3BA8F"/>
<path d="M100.078 33.9153L98.834 35.6332V36.5428H98.5663V35.6369L97.3185 33.9153H97.6366L98.7052 35.4137L99.7738 33.9153H100.078Z" fill="#E3BA8F"/>
<path d="M102.173 35.5923C102.372 35.5923 102.533 35.4295 102.533 35.2286C102.533 35.0278 102.372 34.8649 102.173 34.8649C101.974 34.8649 101.813 35.0278 101.813 35.2286C101.813 35.4295 101.974 35.5923 102.173 35.5923Z" fill="#E3BA8F"/>
<path d="M62.4426 35.5923C62.6412 35.5923 62.8022 35.4295 62.8022 35.2286C62.8022 35.0278 62.6412 34.8649 62.4426 34.8649C62.2441 34.8649 62.0831 35.0278 62.0831 35.2286C62.0831 35.4295 62.2441 35.5923 62.4426 35.5923Z" fill="#E3BA8F"/>
</svg>
